# xmcd CD database file
# Copyright (C) 1996 Ti Kan
#
# Track frame offsets:
#  150
#  1972
#  31957
#  61167
#  69750
#  103185
#  157317
#  177172
#
# Disc length: 2718 seconds
#
# Revision: 1
# Processed by: cddbd v1.4b41PL1 Copyright (c) Steve Scherf et al.
# Submitted via: CDWizzard Release:4.14
#
DISCID=5f0a9c08
DTITLE=Harvi Griffin - Classical, Volume 1
DYEAR=1900
DGENRE=
TTITLE0=Introducing Harvi Griffin
TTITLE1=Greensleeves
TTITLE2=The Harmonious Blacksmith (Air and Variations)
TTITLE3=Intro To...
TTITLE4=Kanon In D Major
TTITLE5=Sonata In G Major (Solor for Harp)
TTITLE6=Londenderry Air
TTITLE7=Ave Maria
EXTD=
EXTT0=
EXTT1=
EXTT2=
EXTT3=
EXTT4=
EXTT5=
EXTT6=
EXTT7=
PLAYORDER=
